<mxfile host="app.diagrams.net" modified="2022-10-19T21:27:44.592Z" agent="5.0 (Windows NT 10.0; Win64; x64) AppleWebKit/537.36 (KHTML, like Gecko) Chrome/106.0.0.0 Safari/537.36" etag="da8qTSgC_VOKlKjg25lA" version="20.4.1" type="github">
  <diagram id="vhWuL1RMS16rMnkF5TfM" name="Page-1">
    <mxGraphModel dx="2128" dy="621" grid="1" gridSize="10" guides="1" tooltips="1" connect="1" arrows="1" fold="1" page="1" pageScale="1" pageWidth="850" pageHeight="1100" math="0" shadow="0">
      <root>
        <mxCell id="0" />
        <mxCell id="1" parent="0" />
        <mxCell id="vGU7ScyhxmTdvAj9PNUP-1" value="" style="edgeStyle=orthogonalEdgeStyle;rounded=0;orthogonalLoop=1;jettySize=auto;html=1;" edge="1" parent="1" source="vGU7ScyhxmTdvAj9PNUP-4" target="vGU7ScyhxmTdvAj9PNUP-7">
          <mxGeometry relative="1" as="geometry" />
        </mxCell>
        <mxCell id="vGU7ScyhxmTdvAj9PNUP-2" value="" style="edgeStyle=orthogonalEdgeStyle;rounded=0;orthogonalLoop=1;jettySize=auto;html=1;" edge="1" parent="1" source="vGU7ScyhxmTdvAj9PNUP-18" target="vGU7ScyhxmTdvAj9PNUP-4">
          <mxGeometry relative="1" as="geometry" />
        </mxCell>
        <mxCell id="vGU7ScyhxmTdvAj9PNUP-3" value="" style="edgeStyle=orthogonalEdgeStyle;rounded=0;orthogonalLoop=1;jettySize=auto;html=1;" edge="1" parent="1" source="vGU7ScyhxmTdvAj9PNUP-23" target="vGU7ScyhxmTdvAj9PNUP-4">
          <mxGeometry relative="1" as="geometry" />
        </mxCell>
        <mxCell id="vGU7ScyhxmTdvAj9PNUP-4" value="Convert Image and data to sound&amp;nbsp;" style="rounded=1;whiteSpace=wrap;html=1;" vertex="1" parent="1">
          <mxGeometry x="-400" y="330" width="120" height="60" as="geometry" />
        </mxCell>
        <mxCell id="vGU7ScyhxmTdvAj9PNUP-5" value="" style="edgeStyle=orthogonalEdgeStyle;rounded=0;orthogonalLoop=1;jettySize=auto;html=1;" edge="1" parent="1" source="vGU7ScyhxmTdvAj9PNUP-7" target="vGU7ScyhxmTdvAj9PNUP-10">
          <mxGeometry relative="1" as="geometry" />
        </mxCell>
        <mxCell id="vGU7ScyhxmTdvAj9PNUP-6" value="" style="edgeStyle=orthogonalEdgeStyle;rounded=0;orthogonalLoop=1;jettySize=auto;html=1;" edge="1" parent="1" source="vGU7ScyhxmTdvAj9PNUP-19" target="vGU7ScyhxmTdvAj9PNUP-7">
          <mxGeometry relative="1" as="geometry" />
        </mxCell>
        <mxCell id="vGU7ScyhxmTdvAj9PNUP-7" value="modulate" style="whiteSpace=wrap;html=1;rounded=1;" vertex="1" parent="1">
          <mxGeometry x="-200" y="330" width="120" height="60" as="geometry" />
        </mxCell>
        <mxCell id="vGU7ScyhxmTdvAj9PNUP-8" value="" style="edgeStyle=orthogonalEdgeStyle;rounded=0;orthogonalLoop=1;jettySize=auto;html=1;" edge="1" parent="1" source="vGU7ScyhxmTdvAj9PNUP-10" target="vGU7ScyhxmTdvAj9PNUP-13">
          <mxGeometry relative="1" as="geometry" />
        </mxCell>
        <mxCell id="vGU7ScyhxmTdvAj9PNUP-9" value="" style="edgeStyle=orthogonalEdgeStyle;rounded=0;orthogonalLoop=1;jettySize=auto;html=1;" edge="1" parent="1" source="vGU7ScyhxmTdvAj9PNUP-20" target="vGU7ScyhxmTdvAj9PNUP-10">
          <mxGeometry relative="1" as="geometry" />
        </mxCell>
        <mxCell id="vGU7ScyhxmTdvAj9PNUP-10" value="transmit with air as medium" style="whiteSpace=wrap;html=1;rounded=1;" vertex="1" parent="1">
          <mxGeometry y="330" width="120" height="60" as="geometry" />
        </mxCell>
        <mxCell id="vGU7ScyhxmTdvAj9PNUP-11" value="" style="edgeStyle=orthogonalEdgeStyle;rounded=0;orthogonalLoop=1;jettySize=auto;html=1;" edge="1" parent="1" source="vGU7ScyhxmTdvAj9PNUP-13" target="vGU7ScyhxmTdvAj9PNUP-16">
          <mxGeometry relative="1" as="geometry" />
        </mxCell>
        <mxCell id="vGU7ScyhxmTdvAj9PNUP-12" value="" style="edgeStyle=orthogonalEdgeStyle;rounded=0;orthogonalLoop=1;jettySize=auto;html=1;" edge="1" parent="1" source="vGU7ScyhxmTdvAj9PNUP-21" target="vGU7ScyhxmTdvAj9PNUP-13">
          <mxGeometry relative="1" as="geometry" />
        </mxCell>
        <mxCell id="vGU7ScyhxmTdvAj9PNUP-13" value="demodulate&amp;nbsp;" style="whiteSpace=wrap;html=1;rounded=1;" vertex="1" parent="1">
          <mxGeometry x="200" y="330" width="120" height="60" as="geometry" />
        </mxCell>
        <mxCell id="vGU7ScyhxmTdvAj9PNUP-14" value="" style="edgeStyle=orthogonalEdgeStyle;rounded=0;orthogonalLoop=1;jettySize=auto;html=1;" edge="1" parent="1" source="vGU7ScyhxmTdvAj9PNUP-16" target="vGU7ScyhxmTdvAj9PNUP-17">
          <mxGeometry relative="1" as="geometry" />
        </mxCell>
        <mxCell id="vGU7ScyhxmTdvAj9PNUP-15" value="" style="edgeStyle=orthogonalEdgeStyle;rounded=0;orthogonalLoop=1;jettySize=auto;html=1;" edge="1" parent="1" source="vGU7ScyhxmTdvAj9PNUP-22" target="vGU7ScyhxmTdvAj9PNUP-16">
          <mxGeometry relative="1" as="geometry" />
        </mxCell>
        <mxCell id="vGU7ScyhxmTdvAj9PNUP-16" value="apply the sampling, quantizing and rearranging to get the data back" style="whiteSpace=wrap;html=1;rounded=1;" vertex="1" parent="1">
          <mxGeometry x="400" y="330" width="120" height="60" as="geometry" />
        </mxCell>
        <mxCell id="vGU7ScyhxmTdvAj9PNUP-17" value="original data recived" style="whiteSpace=wrap;html=1;rounded=1;" vertex="1" parent="1">
          <mxGeometry x="600" y="330" width="120" height="60" as="geometry" />
        </mxCell>
        <mxCell id="vGU7ScyhxmTdvAj9PNUP-18" value="Apply DAC or pseudo hilbert technique and using ASCII frequenncy&amp;nbsp;" style="rounded=1;whiteSpace=wrap;html=1;" vertex="1" parent="1">
          <mxGeometry x="-400" y="470" width="120" height="60" as="geometry" />
        </mxCell>
        <mxCell id="vGU7ScyhxmTdvAj9PNUP-19" value="apply encoding techniques(assymetric and accepts data corruption)" style="whiteSpace=wrap;html=1;rounded=1;" vertex="1" parent="1">
          <mxGeometry x="-200" y="470" width="120" height="60" as="geometry" />
        </mxCell>
        <mxCell id="vGU7ScyhxmTdvAj9PNUP-20" value="use UAT or DMR technique" style="whiteSpace=wrap;html=1;rounded=1;" vertex="1" parent="1">
          <mxGeometry y="470" width="120" height="60" as="geometry" />
        </mxCell>
        <mxCell id="vGU7ScyhxmTdvAj9PNUP-21" value="decode" style="whiteSpace=wrap;html=1;rounded=1;" vertex="1" parent="1">
          <mxGeometry x="200" y="470" width="120" height="60" as="geometry" />
        </mxCell>
        <mxCell id="vGU7ScyhxmTdvAj9PNUP-22" value="use ADC" style="whiteSpace=wrap;html=1;rounded=1;" vertex="1" parent="1">
          <mxGeometry x="400" y="470" width="120" height="60" as="geometry" />
        </mxCell>
        <mxCell id="vGU7ScyhxmTdvAj9PNUP-23" value="Retrieve image in the HT using raspberry pi" style="rounded=1;whiteSpace=wrap;html=1;" vertex="1" parent="1">
          <mxGeometry x="-600" y="330" width="120" height="60" as="geometry" />
        </mxCell>
      </root>
    </mxGraphModel>
  </diagram>
</mxfile>
